<?xml version="1.0" encoding="UTF-8"?>
<svg id="Layer_1" data-name="Layer 1" xmlns="http://www.w3.org/2000/svg" viewBox="0 0 459.57 83.99">
  <defs>
    <style>
      .cls-1 {
        font-size: 57px;
      }

      .cls-1, .cls-2 {
        font-family: SegoeTV-Bold, 'Segoe TV';
      }

      .cls-1, .cls-3 {
        fill: #231f20;
      }

      .cls-4, .cls-2 {
        fill: #0d569a;
      }

      .cls-5 {
        letter-spacing: 0em;
      }

      .cls-6 {
        letter-spacing: -.05em;
      }

      .cls-2 {
        font-size: 34px;
      }

      .cls-7 {
        letter-spacing: -.06em;
      }

      .cls-3 {
        font-family: SegoeTV, 'Segoe TV';
        font-size: 28px;
      }
    </style>
  </defs>
  <path class="cls-4" d="M21.18,71.48c0-1.12-.06-2.02,.03-2.91,.03-.3,.38-.67,.68-.84,2.65-1.45,5.31-2.89,8-4.28,.67-.35,.95-.72,.95-1.47-.04-4.81-.02-9.61-.02-14.42,0-.29,0-.58,0-1.04-.46,.2-.74,.3-1.01,.44-4.49,2.43-8.96,4.88-13.46,7.29-.62,.33-.82,.71-.81,1.36,.06,2.76,.02,5.53,.12,8.29,.03,.95-.3,1.51-1.19,1.89-.6,.25-1.16,.59-1.96,1v-10.42c-3.65,1.97-7.03,3.8-10.48,5.67-.69-1.12-1.34-2.17-2.04-3.31,3.44-1.87,6.8-3.7,10.39-5.65-3.24-1.79-6.3-3.48-9.56-5.28,1.06-.57,1.99-1.11,2.96-1.57,.17-.08,.53,.09,.76,.21,2.79,1.52,5.57,3.06,8.38,4.55,.3,.16,.83,.23,1.1,.08,4.7-2.51,9.37-5.05,14.05-7.59,.16-.08,.28-.22,.53-.41-1.65-.9-3.21-1.76-4.78-2.61-3.15-1.71-6.32-3.4-9.46-5.14-.54-.3-.93-.31-1.48,0-2.69,1.51-5.41,2.96-8.1,4.48-.58,.33-1.01,.33-1.55,0-.69-.43-1.42-.8-2.3-1.3,3.19-1.77,6.27-3.47,9.52-5.27-3.57-1.94-6.93-3.77-10.37-5.65,.69-1.12,1.33-2.18,2.02-3.31,3.41,1.84,6.77,3.66,10.35,5.59v-10.47c1.19,.66,2.15,1.15,3.06,1.72,.18,.12,.21,.54,.21,.82-.01,2.88-.03,5.77-.08,8.65-.01,.75,.24,1.17,.96,1.56,4.31,2.29,8.58,4.65,12.87,6.98,.37,.2,.77,.37,1.36,.66v-1.05c0-4.81-.01-9.61,.01-14.42,0-.65-.19-1.03-.82-1.35-2.68-1.39-5.33-2.85-8.01-4.25-.6-.31-.9-.67-.85-1.34,.06-.77,.01-1.54,.01-2.52,3.27,1.74,6.35,3.38,9.61,5.11V8.62c1.26,0,2.44-.04,3.6,.04,.18,.01,.44,.58,.45,.89,.04,2.76,.02,5.53,.02,8.29,0,.62,0,1.24,0,2.11,3.33-1.77,6.42-3.42,9.68-5.16,0,1.13,.04,2.14-.03,3.13-.02,.23-.41,.49-.69,.64-2.71,1.47-5.44,2.93-8.17,4.37-.48,.25-.79,.53-.79,1.1,.02,4.99,.01,9.97,.02,14.96,0,.17,.05,.35,.1,.64,.35-.15,.63-.26,.89-.4,4.46-2.41,8.91-4.84,13.38-7.24,.61-.32,.84-.68,.82-1.34-.05-2.85-.03-5.71-.08-8.56-.01-.7,.14-1.18,.89-1.49,.69-.28,1.32-.7,2.23-1.2v10.46c3.64-1.97,7-3.79,10.46-5.66,.68,1.1,1.33,2.15,2.04,3.3-3.45,1.88-6.83,3.73-10.38,5.66,3.25,1.8,6.32,3.49,9.54,5.27-.99,.54-1.84,1.07-2.75,1.47-.28,.12-.8-.03-1.12-.2-2.66-1.43-5.31-2.88-7.94-4.36-.61-.35-1.09-.39-1.74-.03-4.44,2.45-8.91,4.85-13.36,7.27-.24,.13-.47,.29-.82,.51,.3,.2,.51,.36,.75,.49,4.56,2.48,9.13,4.95,13.69,7.45,.47,.26,.82,.28,1.31,0,2.69-1.51,5.41-2.97,8.1-4.47,.59-.33,1.06-.4,1.66-.01,.67,.44,1.42,.78,2.31,1.26-3.22,1.78-6.28,3.47-9.56,5.28,3.56,1.94,6.94,3.78,10.38,5.66-.69,1.11-1.34,2.17-2.04,3.3-3.45-1.86-6.83-3.69-10.42-5.62v10.45c-1.08-.59-2-1.05-2.86-1.6-.21-.14-.3-.56-.31-.86-.02-2.97,.01-5.95-.03-8.92,0-.37-.23-.92-.54-1.09-4.63-2.55-9.29-5.06-13.94-7.57-.14-.07-.28-.13-.58-.27-.04,.42-.11,.75-.11,1.08,0,4.78,0,9.55-.02,14.33,0,.72,.26,1.12,.94,1.48,2.74,1.42,5.45,2.89,8.15,4.38,.29,.16,.55,.57,.58,.88,.08,.86,.03,1.73,.03,2.8-3.25-1.73-6.34-3.38-9.58-5.1-.04,.5-.1,.87-.1,1.24,0,3-.03,6.01,.01,9.01,.01,.82-.25,1.13-1.15,1.06-.92-.07-1.84-.02-2.92-.02v-11.35c-3.31,1.76-6.39,3.4-9.63,5.12Z"/>
  <text class="cls-1" transform="translate(73.55 48.45)"><tspan x="0" y="0">ICE </tspan><tspan class="cls-6" x="101.92" y="0">F</tspan><tspan x="129.03" y="0">A</tspan><tspan class="cls-5" x="169.66" y="0">R</tspan><tspan x="205.93" y="0">GO</tspan></text>
  <text class="cls-2" transform="translate(369.63 45.43)"><tspan x="0" y="0">CARE</tspan></text>
  <text class="cls-3" transform="translate(74.7 77.39)"><tspan x="0" y="0">REFRIGER</tspan><tspan class="cls-7" x="127.37" y="0">A</tspan><tspan x="144.44" y="0">TING SPECIALISTS</tspan></text>
</svg>